<svg xmlns="http://w3.org" xmlns:xlink="http://w3.org" width="1000" height="800" viewBox="0 0 1000 800">
  <rect width="100%" height="100%" fill="#ffffff"/>
  
  <!-- ARDUINO NANO -->
  <rect x="350" y="250" width="200" height="400" rx="10" fill="#e0e0e0" stroke="#333" stroke-width="3"/>
  <text x="400" y="290" font-family="Arial" font-size="20" font-weight="bold">Arduino Nano</text>
  
  <!-- NRF24L01+ MODULE -->
  <rect x="50" y="100" width="180" height="120" rx="5" fill="#add8e6" stroke="#005b96" stroke-width="2"/>
  <text x="70" y="135" font-family="Arial" font-size="16" font-weight="bold">nRF24L01+</text>
  <circle cx="210" cy="120" r="10" fill="#ff4444"/> <!-- Antenna Port -->
  <text x="65" y="180" font-family="Arial" font-size="12">SPI: 11, 12, 13</text>
  <text x="65" y="200" font-family="Arial" font-size="12">CE: 9 | CSN: 10</text>
  
  <!-- DECOUPLING CAPACITOR -->
  <rect x="240" y="140" width="30" height="40" fill="#888" stroke="#333"/>
  <text x="230" y="130" font-family="Arial" font-size="10">10uF-100uF</text>
  
  <!-- SERVO / ESC RAIL (7 CHANNELS) -->
  <rect x="700" y="100" width="250" height="550" rx="5" fill="#ffe0b2" stroke="#e65100" stroke-width="2"/>
  <text x="740" y="135" font-family="Arial" font-size="18" font-weight="bold">Servo/ESC Rail</text>
  <g font-family="Arial" font-size="12" fill="#333">
    <text x="720" y="180">D2: CH1 (Rudder)</text>
    <text x="720" y="230">D3: CH2 (Throttle/L)</text>
    <text x="720" y="280">D4: CH3 (Aux/R Motor)</text>
    <text x="720" y="330">D5: CH4 (Yaw/Pan)</text>
    <text x="720" y="380">D6: CH5 (Tilt)</text>
    <text x="720" y="430">D7: CH6 (Digital A)</text>
    <text x="720" y="480">D8: CH7 (Mixer Status)</text>
  </g>

  <!-- SENSORS & STATUS -->
  <g stroke="#333" stroke-width="2">
    <!-- LED -->
    <circle cx="150" cy="400" r="15" fill="#ff4444"/>
    <text x="110" y="440" font-family="Arial" font-size="12">Status LED (A2)</text>
    
    <!-- BIND JUMPER -->
    <rect x="130" y="500" width="40" height="30" fill="#90ee90"/>
    <text x="90" y="550" font-family="Arial" font-size="12">Bind Jumper (A1)</text>
    
    <!-- VOLTAGE DIVIDER -->
    <rect x="110" y="620" width="100" height="60" fill="#fffacd"/>
    <text x="115" y="640" font-family="Arial" font-size="11">R1: 10k | R2: 4.7k</text>
    <text x="120" y="660" font-family="Arial" font-size="12" font-weight="bold">Volt Tap (A0)</text>
  </g>

  <!-- WIRING BUS LINES -->
  <path d="M 230 160 L 350 350" fill="none" stroke="#005b96" stroke-width="2" stroke-dasharray="5,3"/> <!-- Radio Bus -->
  <path d="M 700 350 L 550 450" fill="none" stroke="#e65100" stroke-width="2"/> <!-- Servo Bus -->
  <path d="M 210 650 L 350 600" fill="none" stroke="#fbc02d" stroke-width="2"/> <!-- Voltage line -->

</svg>
