<svg xmlns="http://www.w3.org/2000/svg" xmlns:xlink="http://www.w3.org/1999/xlink" width="1000" height="850" viewBox="0 0 1000 850">
  <rect width="100%" height="100%" fill="#ffffff"/>
  <rect x="350" y="200" width="300" height="450" rx="10" ry="10" fill="#e0e0e0" stroke="#000000" stroke-width="2"/>
  <text x="410" y="240" font-family="Arial" font-size="18" font-weight="bold">Mega 2560 Pro Mini</text>
  <rect x="50" y="50" width="160" height="100" rx="5" ry="5" fill="#add8e6" stroke="#000000"/>
  <text x="65" y="80" font-family="Arial" font-size="14" font-weight="bold">nRF24L01+</text>
  <path d="M 210 100 L 350 250" fill="none" stroke="#0000ff" stroke-width="2" stroke-dasharray="4"/>
  <text x="220" y="150" font-family="Arial" font-size="12" fill="#0000ff">SPI: 50, 51, 52, 9, 10</text>
  <circle cx="150" cy="350" r="60" fill="#ffe0e0" stroke="#000000"/><text x="100" y="430" font-family="Arial" font-size="12">Left Gimbal (A0/A1)</text>
  <circle cx="850" cy="350" r="60" fill="#ffe0e0" stroke="#000000"/><text x="800" y="430" font-family="Arial" font-size="12">Right Gimbal (A2/A3)</text>
  <rect x="425" y="50" width="150" height="80" rx="5" ry="5" fill="#4a4a4a" stroke="#000000"/><text x="445" y="80" font-family="Arial" font-size="14" font-weight="bold" fill="#ffffff">OLED (I2C)</text>
  <path d="M 500 130 L 500 200" fill="none" stroke="#008000" stroke-width="2"/>
  <g fill="#90ee90" stroke="#000000">
    <circle cx="100" cy="550" r="20"/><text x="130" y="555" font-family="Arial" font-size="12">Trim Select (D8)</text>
    <circle cx="100" cy="600" r="20"/><text x="130" y="605" font-family="Arial" font-size="12">Trim + (D6)</text>
    <circle cx="100" cy="650" r="20"/><text x="130" y="655" font-family="Arial" font-size="12">Trim - (D7)</text>
    <circle cx="900" cy="550" r="20"/><text x="780" y="555" font-family="Arial" font-size="12">Button A (D2)</text>
    <circle cx="900" cy="600" r="20"/><text x="780" y="605" font-family="Arial" font-size="12">Button B (D3)</text>
    <rect x="880" y="630" width="40" height="40"/><text x="770" y="655" font-family="Arial" font-size="12">Mixer Sw (D4)</text>
    <circle cx="500" cy="730" r="20"/><text x="460" y="770" font-family="Arial" font-size="12">Buzzer (D5)</text>
  </g>
  <rect x="750" y="50" width="120" height="60" fill="#fffacd" stroke="#000000"/><text x="760" y="85" font-family="Arial" font-size="12">10k/10k Tap (A15)</text>
</svg>
